<?xml version="1.0" standalone="no"?>
<!DOCTYPE svg PUBLIC "-//W3C//DTD SVG 20010904//EN"
 "http://www.w3.org/TR/2001/REC-SVG-20010904/DTD/svg10.dtd">
<svg version="1.0" xmlns="http://www.w3.org/2000/svg"
 width="500.000000pt" height="500.000000pt" viewBox="0 0 500.000000 500.000000"
 preserveAspectRatio="xMidYMid meet">
<metadata>
Created by potrace 1.14, written by Peter Selinger 2001-2017
</metadata>
<g transform="translate(0.000000,500.000000) scale(0.100000,-0.100000)"
fill="#000000" stroke="none">
<path d="M4017 4754 c-1 -1 -49 -5 -106 -8 -58 -4 -114 -8 -125 -11 -12 -2
-40 -6 -63 -9 -22 -3 -52 -7 -65 -10 -12 -3 -36 -7 -53 -10 -27 -4 -209 -42
-245 -51 -97 -25 -249 -68 -265 -75 -11 -5 -65 -23 -120 -40 -55 -18 -113 -38
-130 -45 -16 -7 -57 -23 -89 -35 -33 -11 -64 -24 -70 -28 -6 -4 -13 -7 -16 -8
-30 -5 -60 -18 -60 -24 0 -4 -12 -11 -27 -15 -49 -11 -394 -186 -523 -263
-104 -63 -286 -183 -325 -214 -5 -5 -28 -22 -50 -39 -68 -52 -210 -168 -275
-224 -63 -54 -345 -338 -402 -405 -75 -88 -215 -267 -258 -330 -19 -28 -41
-58 -47 -65 -7 -7 -13 -18 -13 -24 0 -5 -6 -16 -13 -23 -44 -43 -198 -335
-265 -499 -74 -182 -109 -312 -147 -544 -17 -105 -12 -350 9 -450 12 -57 19
-83 28 -110 10 -31 13 -37 46 -116 45 -105 163 -254 259 -326 21 -15 40 -30
43 -33 25 -26 270 -157 270 -144 0 4 6 2 13 -4 25 -21 241 -81 347 -97 20 -3
45 -7 56 -9 24 -5 111 -14 203 -22 167 -15 438 -4 561 22 14 3 36 7 50 9 77
13 220 48 290 72 25 8 52 16 60 18 8 2 42 13 75 25 33 12 65 23 70 24 10 3 14
4 110 43 66 26 82 34 198 87 43 20 83 36 88 36 5 0 9 5 9 10 0 6 9 10 19 10
11 0 23 4 26 10 3 5 25 18 48 29 71 34 220 121 228 133 3 6 8 9 10 7 12 -6
295 195 389 277 54 47 293 285 335 334 17 19 63 78 103 130 40 52 77 100 82
107 6 7 10 15 10 18 0 4 13 25 28 48 75 111 162 325 178 437 37 271 -85 521
-306 627 -80 39 -245 98 -300 107 -14 3 -25 5 -25 6 0 2 -62 18 -77 19 -27 3
37 51 68 51 8 0 14 4 14 8 0 4 16 14 35 21 19 7 35 17 35 22 0 5 8 9 19 9 10
0 24 7 31 15 7 8 17 15 22 15 6 0 38 16 72 36 97 58 241 148 246 154 3 3 30
24 60 47 162 123 343 423 376 623 26 160 -16 339 -106 454 -72 93 -212 176
-323 191 -101 14 -136 17 -225 19 -56 1 -103 1 -105 0z m-766 -420 c159 -80
229 -225 216 -447 -4 -56 -8 -109 -10 -117 -6 -27 -31 -135 -32 -140 0 -3 -3
-9 -6 -15 -3 -5 -14 -36 -24 -67 -11 -32 -23 -58 -27 -58 -4 0 -8 -8 -8 -17 0
-16 -26 -67 -85 -173 -11 -19 -22 -37 -25 -40 -3 -3 -17 -21 -30 -40 -65 -92
-192 -219 -252 -251 -12 -6 -25 -15 -28 -19 -15 -23 -269 -136 -375 -167 l-50
-16 35 -15 c227 -99 288 -141 354 -245 43 -68 79 -159 101 -254 22 -102 26
-135 30 -300 5 -223 -21 -387 -92 -563 -37 -91 -83 -183 -95 -188 -5 -2 -8 -8
-8 -13 0 -9 -36 -65 -50 -79 -3 -3 -18 -23 -34 -45 -38 -52 -199 -213 -251
-251 -22 -16 -42 -32 -45 -35 -9 -11 -114 -76 -168 -103 -93 -47 -167 -65
-251 -61 -94 4 -96 4 -151 37 -141 82 -262 341 -298 633 -14 118 -6 537 13
635 2 14 7 45 9 70 3 25 10 66 15 92 6 27 11 51 10 55 -1 5 0 11 1 16 3 8 3 9
13 52 8 34 16 69 23 105 17 84 123 435 153 505 5 11 14 36 21 55 7 19 18 49
25 65 7 17 32 75 56 130 61 142 183 381 264 515 38 63 72 117 75 120 3 3 23
32 45 65 137 206 342 434 442 491 26 15 55 33 63 39 28 23 147 65 201 71 30 3
55 7 57 9 10 9 132 -20 173 -41z"/>
</g>
</svg>
